<?xml version="1.0" encoding="UTF-8" standalone="no"?>
<svg
   width="400mm"
   height="250mm"
   viewBox="0 0 399.99999 250"
   version="1.1"
   id="svg8"
   inkscape:version="1.1.2 (0a00cf5339, 2022-02-04)"
   sodipodi:docname="ktorz-logo.svg"
   xmlns:inkscape="http://www.inkscape.org/namespaces/inkscape"
   xmlns:sodipodi="http://sodipodi.sourceforge.net/DTD/sodipodi-0.dtd"
   xmlns="http://www.w3.org/2000/svg"
   xmlns:svg="http://www.w3.org/2000/svg"
   xmlns:rdf="http://www.w3.org/1999/02/22-rdf-syntax-ns#"
   xmlns:cc="http://creativecommons.org/ns#"
   xmlns:dc="http://purl.org/dc/elements/1.1/">
  <defs
     id="defs2" />
  <sodipodi:namedview
     id="base"
     pagecolor="#ffffff"
     bordercolor="#666666"
     borderopacity="1.0"
     inkscape:pageopacity="0.0"
     inkscape:pageshadow="2"
     inkscape:zoom="0.7"
     inkscape:cx="503.57143"
     inkscape:cy="330.71429"
     inkscape:document-units="mm"
     inkscape:current-layer="g953"
     inkscape:document-rotation="0"
     showgrid="false"
     fit-margin-top="0"
     fit-margin-left="0"
     fit-margin-right="0"
     fit-margin-bottom="0"
     inkscape:window-width="3840"
     inkscape:window-height="2007"
     inkscape:window-x="0"
     inkscape:window-y="40"
     inkscape:window-maximized="1"
     inkscape:pagecheckerboard="0" />
  <metadata
     id="metadata5">
    <rdf:RDF>
      <cc:Work
         rdf:about="">
        <dc:format>image/svg+xml</dc:format>
        <dc:type
           rdf:resource="http://purl.org/dc/dcmitype/StillImage" />
      </cc:Work>
    </rdf:RDF>
  </metadata>
  <g
     inkscape:label="Calque 1"
     inkscape:groupmode="layer"
     id="layer1"
     transform="translate(128.20132,-63.532667)">
    <g
       id="g953"
       transform="matrix(1.3368699,0,0,1.6168076,-24.595717,-83.691622)">
      <path
         style="fill:#666666;stroke:#575757;stroke-width:2.87944457;stroke-linecap:round;stroke-linejoin:round;fill-opacity:1;stroke-opacity:1;stroke-miterlimit:4;stroke-dasharray:none"
         id="path855"
         d="m -69.089959,107.68926 c 5.013833,24.54186 5.842336,49.66932 7.094045,74.61177 0.809196,17.81814 1.23748,35.64921 1.642486,53.47986 0,0 3.144805,-1.61232 3.144805,-1.61232 v 0 c -0.490463,-17.8089 -0.9981,-35.61783 -1.783193,-53.41684 -1.204685,-25.03217 -1.93811,-50.23386 -6.621087,-74.91927 0,0 -3.477056,1.8568 -3.477056,1.8568 z" />
      <path
         style="fill:#666666;stroke:#575757;stroke-width:2.87944457;stroke-linecap:round;stroke-linejoin:round;fill-opacity:1;stroke-opacity:1;stroke-miterlimit:4;stroke-dasharray:none"
         id="path857"
         d="M 77.634089,99.439551 C 55.206037,110.35291 33.973093,123.54182 12.866394,136.77933 c -19.560238,12.14244 -37.970671,25.97335 -56.791976,39.19591 -3.282248,2.28178 -6.568548,4.56367 -9.737759,7.00208 -0.08997,0.0692 -2.441099,1.84094 -2.665158,2.30928 -0.110885,0.23177 0.109572,0.50205 0.164359,0.75308 0.727435,0.10702 1.447157,0.30807 2.182307,0.32106 2.124599,0.0376 4.248309,-0.11486 6.372529,-0.16986 3.895254,-0.10087 7.79013,-0.21879 11.685889,-0.29775 6.787208,-0.13755 13.574824,-0.25737 20.362767,-0.35179 23.6805072,-0.32938 37.745053,-0.39742 62.05325,-0.58689 32.817321,-0.23731 65.632458,-0.68635 98.447518,-1.12542 0,0 2.52698,-1.84171 2.52698,-1.84171 v 0 c -32.85486,0.5377 -65.710422,1.07428 -98.570052,1.2179 -33.845338,0.15913 -67.708211,0.10461 -101.542677,0.96925 -0.0079,-0.13226 -0.101269,-0.28941 -0.02365,-0.39678 0.392089,-0.54235 2.343597,-2.01737 2.642357,-2.24705 3.139535,-2.41353 6.388462,-4.68075 9.633886,-6.94799 18.70669,-13.20285 37.0226061,-26.98546 56.501498,-39.06134 19.044695,-11.92786 38.115213,-23.94422 58.430241,-33.63345 0,0 3.095379,-2.448309 3.095379,-2.448309 z" />
      <path
         style="fill:#666666;stroke:#575757;stroke-width:2.87944457;stroke-linecap:round;stroke-linejoin:round;fill-opacity:1;stroke-opacity:1;stroke-miterlimit:4;stroke-dasharray:none"
         id="path859"
         d="m 16.807463,161.58634 c -0.375054,3.30091 -0.702079,6.61238 -1.125161,9.90273 -0.725731,5.64406 -1.549361,11.26445 -2.320891,16.89746 -2.043943,14.92301 -4.1739078,30.55722 -6.2078975,45.47119 0,0 3.1183105,-2.04594 3.1183105,-2.04594 v 0 c 2.986299,-21.76117 3.276962,-24.09982 6.338337,-45.55378 0.809257,-5.67124 1.678104,-11.32708 2.46127,-17.00497 0.458836,-3.32652 0.842992,-6.67095 1.264487,-10.00642 0,0 -3.528455,2.33973 -3.528455,2.33973 z" />
      <path
         style="fill:#666666;stroke:#575757;stroke-width:1.79965286;stroke-linecap:round;stroke-linejoin:round;fill-opacity:1;stroke-opacity:1;stroke-miterlimit:4;stroke-dasharray:none"
         id="path861"
         d="m 60.003819,208.09577 c -3.443261,0.3577 -6.833081,1.29833 -9.830654,3.08702 -3.960185,2.36309 -7.399197,4.08052 -9.626759,8.08509 -0.644075,1.15787 -0.866388,2.50427 -1.29958,3.7564 0.160959,1.16218 0.107161,2.37504 0.482883,3.48652 1.011716,2.99293 3.83227,5.43572 6.83329,6.29178 2.537146,0.72374 3.50511,0.26805 6.026576,-0.15627 3.685276,-1.52597 4.731359,-1.779 8.630005,-4.80749 1.971598,-1.53154 4.104793,-5.71626 4.594783,-8.1399 0.191082,-0.94516 0.126661,-1.92439 0.189992,-2.88658 -0.228375,-0.87978 -0.324781,-1.80488 -0.685131,-2.63933 -1.363289,-3.15694 -4.589774,-5.19993 -7.814373,-5.98947 -0.820894,-0.201 -1.670045,-0.26079 -2.505067,-0.39119 -2.082781,-0.21657 -4.123695,0.0703 -6.16399,0.43665 0,0 -3.151455,2.38197 -3.151455,2.38197 v 0 c 2.017054,-0.40988 4.03556,-0.73803 6.107785,-0.5586 0.822219,0.11216 1.656844,0.15531 2.466663,0.33649 3.109711,0.69572 6.305729,2.5988 7.613856,5.65008 0.341786,0.79723 0.421034,1.68295 0.631552,2.52443 -0.07652,0.93086 -0.02896,1.88039 -0.229552,2.7926 -0.416229,1.89287 -1.48952,3.98702 -2.61343,5.53915 -0.616908,0.85196 -1.564341,1.45668 -2.078585,2.37427 -0.144105,0.25713 1.119727,-0.34284 0.860981,-0.20165 -0.876917,0.4785 -1.82358,0.81629 -2.735371,1.22444 -2.417877,0.48807 -3.420962,0.98014 -5.886085,0.34915 -2.903231,-0.74312 -5.684991,-3.05755 -6.644513,-5.94468 -0.351179,-1.05667 -0.276204,-2.20981 -0.414306,-3.31471 2.17419,-5.89492 0.149598,-1.61938 4.078872,-6.98774 0.168151,-0.22974 0.0616,-0.64553 0.301263,-0.79921 2.896827,-1.85747 6.286341,-2.74579 9.655323,-3.17063 0,0 3.205027,-2.32859 3.205027,-2.32859 z" />
      <path
         style="fill:#666666;stroke:#575757;stroke-width:1.79965286;stroke-linecap:round;stroke-linejoin:round;fill-opacity:1;stroke-opacity:1;stroke-miterlimit:4;stroke-dasharray:none"
         id="path863"
         d="m 89.869634,211.06919 c 0.1094,4.10753 0.489728,8.20347 1.1382,12.26057 0.414504,2.5933 0.207841,1.83393 0.756812,3.45416 1.240956,-0.97303 2.792791,-1.64562 3.722872,-2.91909 0.454451,-0.62224 0.07234,-1.53941 0.09591,-2.30958 0.02843,-0.9292 0.02984,-1.85912 0.06007,-2.78826 0.04148,-1.27496 0.128029,-4.30983 0.447638,-5.58627 0.217342,-0.86802 0.656185,-1.665 0.984279,-2.4975 1.572149,-2.0784 1.683094,-2.7011 4.187125,-3.92593 0.16541,-0.0809 -0.26789,0.56488 -0.0847,0.54589 1.27099,-0.13173 2.45925,-0.71891 3.72069,-0.92274 3.31039,-0.5349 5.69089,-0.3646 9.05193,-0.33625 6.70813,0.4583 3.38597,0.15589 9.96709,0.90056 0,0 3.14058,-2.22769 3.14058,-2.22769 v 0 c -6.59611,-0.759 -3.26796,-0.4451 -9.98501,-0.9358 -4.02623,-0.0643 -8.99678,-0.4372 -12.83997,1.10969 -2.28296,0.91889 -4.463046,2.08719 -6.603302,3.30191 -0.90419,0.51319 -1.768026,1.12663 -2.500128,1.86483 -0.654087,0.65953 -1.071372,1.5177 -1.607058,2.27655 -0.313761,0.86143 -0.732197,1.69166 -0.941284,2.58429 -0.629899,2.68916 -0.38544,5.66472 -0.509442,8.40223 -0.03446,0.76073 -0.836022,1.94693 -0.150987,2.27956 1.019537,0.49504 2.212147,-0.49447 3.318219,-0.7417 -0.596178,-1.53523 -0.360431,-0.77494 -0.778206,-3.35185 -0.655767,-4.04489 -1.02344,-8.13537 -1.066244,-12.23369 0,0 -3.525049,1.79611 -3.525049,1.79611 z" />
      <path
         style="fill:#666666;stroke:#575757;stroke-width:1.79965286;stroke-linecap:round;stroke-linejoin:round;fill-opacity:1;stroke-opacity:1;stroke-miterlimit:4;stroke-dasharray:none"
         id="path865"
         d="m 162.19756,185.9461 c 9.36956,0.81848 18.75486,1.45658 28.13336,2.16588 2.70015,0.20421 5.40681,0.33663 8.10003,0.61763 2.01867,0.21063 4.01889,0.57101 6.02835,0.85651 0.73581,0.61452 2.38988,0.9024 2.20745,1.84356 -0.29761,1.53538 -1.96438,2.4823 -3.22527,3.40754 -2.74244,2.01237 -5.73527,3.66519 -8.69588,5.3401 -2.95082,1.66937 -6.00332,3.15276 -9.02695,4.68628 -11.19539,5.67799 -15.07733,7.50356 -26.22441,12.91355 -2.34395,1.12576 -15.06884,7.01733 -18.24146,9.22822 -1.90744,1.32923 -4.92359,2.40713 -5.13256,4.72262 -0.1479,1.6387 2.90897,1.67619 4.52925,1.96232 4.70279,0.83047 16.65629,0.51588 21.02734,0.48826 0,0 2.95907,-2.15259 2.95907,-2.15259 v 0 c -5.5949,0.031 -15.01386,0.31889 -20.78344,-0.48817 -1.44542,-0.20218 -2.8022,-0.83101 -4.15904,-1.36868 -0.48993,-0.19414 -1.76532,-0.48637 -1.35413,-0.81598 2.31095,-1.85239 17.19273,-8.78486 18.36454,-9.34928 13.96759,-6.78124 27.99524,-13.43793 41.48076,-21.15909 0.40146,-0.22985 11.42151,-5.69786 11.79595,-9.48919 0.10181,-1.03075 -1.60282,-1.31233 -2.40424,-1.96849 -2.03073,-0.28033 -4.05265,-0.63452 -6.09225,-0.84098 -2.70245,-0.27355 -5.41805,-0.39631 -8.1268,-0.59833 -9.31485,-0.69471 -18.63273,-1.37851 -27.93027,-2.28028 0,0 -3.2294,2.27859 -3.2294,2.27859 z" />
    </g>
  </g>
</svg>
