<?xml version="1.0" encoding="UTF-8" standalone="no"?>
<svg
   width="400mm"
   height="250mm"
   viewBox="0 0 399.99999 250"
   version="1.1"
   id="svg8"
   inkscape:version="1.1.2 (0a00cf5339, 2022-02-04)"
   sodipodi:docname="ktorz-logo.svg"
   xmlns:inkscape="http://www.inkscape.org/namespaces/inkscape"
   xmlns:sodipodi="http://sodipodi.sourceforge.net/DTD/sodipodi-0.dtd"
   xmlns="http://www.w3.org/2000/svg"
   xmlns:svg="http://www.w3.org/2000/svg"
   xmlns:rdf="http://www.w3.org/1999/02/22-rdf-syntax-ns#"
   xmlns:cc="http://creativecommons.org/ns#"
   xmlns:dc="http://purl.org/dc/elements/1.1/">
  <defs
     id="defs2" />
  <sodipodi:namedview
     id="base"
     pagecolor="#ffffff"
     bordercolor="#666666"
     borderopacity="1.0"
     inkscape:pageopacity="0.0"
     inkscape:pageshadow="2"
     inkscape:zoom="0.41244929"
     inkscape:cx="1007.3966"
     inkscape:cy="370.95469"
     inkscape:document-units="mm"
     inkscape:current-layer="g953"
     inkscape:document-rotation="0"
     showgrid="false"
     fit-margin-top="0"
     fit-margin-left="0"
     fit-margin-right="0"
     fit-margin-bottom="0"
     inkscape:window-width="1920"
     inkscape:window-height="1055"
     inkscape:window-x="0"
     inkscape:window-y="32"
     inkscape:window-maximized="1"
     inkscape:pagecheckerboard="0" />
  <metadata
     id="metadata5">
    <rdf:RDF>
      <cc:Work
         rdf:about="">
        <dc:format>image/svg+xml</dc:format>
        <dc:type
           rdf:resource="http://purl.org/dc/dcmitype/StillImage" />
      </cc:Work>
    </rdf:RDF>
  </metadata>
  <g
     inkscape:label="Calque 1"
     inkscape:groupmode="layer"
     id="layer1"
     transform="translate(128.20132,-63.532667)">
    <g
       id="g953"
       transform="matrix(1.3368699,0,0,1.6168076,-24.595717,-83.691622)">
      <g
         id="g4366"
         transform="matrix(1.3190139,0,0,1.3190139,69.664837,-49.867576)">
        <path
           style="fill:#666666;fill-opacity:1;stroke:#575757;stroke-width:2.88083;stroke-linecap:round;stroke-linejoin:round;stroke-miterlimit:4;stroke-dasharray:none;stroke-opacity:1"
           id="path855"
           d="m -50.888473,116.67035 c 11.73367,25.77791 10.124061,49.39903 11.67902,74.69438 l 11.05783,-2.15811 v 0 c -0.805914,-10.8486 -1.640047,-21.69721 -2.930087,-32.53979 -1.9795,-15.24878 -3.184641,-30.60083 -10.879562,-45.63837 z"
           sodipodi:nodetypes="cccsccc" />
        <path
           style="fill:#666666;fill-opacity:1;stroke:#575757;stroke-width:2.87944;stroke-linecap:round;stroke-linejoin:round;stroke-miterlimit:4;stroke-dasharray:none;stroke-opacity:1"
           id="path859"
           d="m 13.389974,142.99211 c -2.805322,24.08588 -6.7717628,52.95355 -9.7964267,75.12771 L 14.256038,217.9639 c 5.358958,-23.44448 8.703006,-57.72464 10.264942,-72.19225 z"
           sodipodi:nodetypes="ccccc" />
        <path
           style="fill:#666666;fill-opacity:1;stroke:#575757;stroke-width:1.43004;stroke-linecap:round;stroke-linejoin:round;stroke-miterlimit:4;stroke-dasharray:none;stroke-opacity:1"
           id="path857"
           d="m 39.038251,108.08955 c -22.997414,9.95177 -52.579349,21.66804 -70.686712,30.27256 0.744242,2.32023 2.214092,16.7194 2.214092,16.7194 25.5661559,-5.27708 60.153861,23.9724 70.202307,28.25605 l 9.332268,-7.68453 C 28.948392,165.33074 9.4012517,145.68392 -27.948507,146.34367 c -0.0046,-0.0557 -0.05931,-0.12189 -0.01385,-0.16711 24.3785929,-12.79587 49.616535,-23.25422 74.161584,-31.76643 z"
           sodipodi:nodetypes="ccccccccc" />
      </g>
    </g>
  </g>
</svg>
